<svg aria-hidden="true" style="width:0;height:0;position:absolute;overflow:hidden" xmlns="http://www.w3.org/2000/svg"><defs><symbol id="icon-arrow-btn" viewBox="0 0 22 32"><path stroke-linejoin="round" stroke-linecap="round" stroke-width="6.4" d="M3.2 3.2 19.04 16 3.2 28.8"/></symbol><symbol id="icon-telegram" viewBox="0 0 44 32"><path d="m17.343 21.048-.675 8.86c.966 0 1.384-.387 1.885-.852l4.527-4.038 9.381 6.412c1.72.895 2.933.424 3.397-1.477l6.157-26.929.002-.002c.546-2.374-.92-3.302-2.596-2.72L3.227 13.235c-2.47.895-2.433 2.18-.42 2.762l9.253 2.686L33.554 6.131c1.012-.625 1.931-.279 1.175.346l-17.386 14.57z"/></symbol><symbol id="icon-github" viewBox="0 0 32 32"><path d="M16 0C7.212 0 0 7.212 0 16c0 7.499 5.262 14.312 12.25 16v-5.293c-.692.152-1.33.156-2.034-.052-.946-.279-1.714-.909-2.284-1.869-.364-.613-1.008-1.278-1.68-1.23l-.165-1.868c1.453-.124 2.711.886 3.457 2.14.332.558.713.884 1.203 1.029.473.14.982.072 1.574-.137.149-1.186.692-1.63 1.102-2.255v-.001c-4.167-.622-5.828-2.832-6.488-4.578-.874-2.317-.405-5.212 1.14-7.041.03-.036.084-.129.063-.194-.708-2.139.155-3.909.187-4.097.817.242.95-.243 3.551 1.337l.449.27c.188.112.129.048.317.034A13.544 13.544 0 0 1 16 7.723c1.136.015 2.273.178 3.404.484l.145.015c-.013-.002.04-.009.127-.062 3.248-1.968 3.132-1.324 4.003-1.608.032.188.883 1.987.182 4.099-.095.291 2.816 2.956 1.203 7.235-.659 1.746-2.32 3.957-6.487 4.578v.001c.534.814 1.176 1.247 1.173 2.927V32C26.738 30.312 32 23.499 32 16c0-8.788-7.212-16-16-16z"/></symbol><symbol id="icon-facebook" viewBox="0 0 16 32"><path d="M14.143 15.972h-4.034v14.865H3.997V15.972H1.09v-5.224h2.907V7.367c0-2.418 1.142-6.203 6.166-6.203l4.527.019v5.071h-3.285c-.539 0-1.296.271-1.296 1.424v3.075h4.567l-.534 5.219z"/></symbol><symbol id="icon-arrow-hover" viewBox="0 0 82 32"><path d="M81.414 17.414a2 2 0 0 0 0-2.828L68.686 1.858a2 2 0 1 0-2.828 2.828L77.172 16 65.858 27.314a2 2 0 1 0 2.828 2.828l12.728-12.728zM0 18h80v-4H0v4z"/></symbol><symbol id="icon-arrow-focus" viewBox="0 0 102 32"><path d="M101.414 17.414a2 2 0 0 0 0-2.828L88.686 1.858a2 2 0 1 0-2.828 2.828L97.172 16 85.858 27.314a2 2 0 1 0 2.828 2.828l12.728-12.728zM0 18h100v-4H0v4z"/></symbol><symbol id="icon-arrow" viewBox="0 0 69 32"><path d="M68.081 17.414a2 2 0 0 0 0-2.829L55.353 1.857a2 2 0 1 0-2.828 2.828l11.314 11.314-11.314 11.314a2 2 0 1 0 2.828 2.828l12.728-12.728zM0 18h66.667v-4H0v4z"/></symbol><symbol id="play_button" viewBox="0 0 32 32"><path d="M29.897 13.806 3.36.537A2.365 2.365 0 0 0 .001 2.65V29.197a2.354 2.354 0 0 0 3.441 2.088l-.013.006 26.469-13.269a2.366 2.366 0 0 0 .013-4.222l-.013-.006v.011z"/></symbol><symbol id="crest" viewBox="0 0 32 32"><path d="m18.006 16 11.79-11.79a1.421 1.421 0 0 0-2.006-2.005L16 13.995 4.21 2.191a1.427 1.427 0 0 0-2.02 2.02l11.804 11.79L2.19 27.791a1.415 1.415 0 0 0-.496 1.025 1.409 1.409 0 0 0 .416 1.061 1.424 1.424 0 0 0 2.087-.08l11.804-11.79 11.79 11.79a1.421 1.421 0 0 0 2.347-1.026 1.421 1.421 0 0 0-.341-.98l-11.79-11.79z"/><symbol id="icon-close" viewBox="0 0 30 32"><path d="m16.239 15.371 6.935-7.007a.853.853 0 0 0-.044-1.147.83.83 0 0 0-1.136-.044l-6.935 7.007-6.935-7.016a.833.833 0 0 0-1.188 0 .85.85 0 0 0 0 1.2l6.944 7.007-6.944 7.007a.837.837 0 0 0-.292.61.865.865 0 0 0 .244.63.84.84 0 0 0 .623.247.835.835 0 0 0 .603-.295l6.944-7.007 6.935 7.007a.828.828 0 0 0 1.136-.044.852.852 0 0 0 .044-1.147l-6.935-7.007z"/></symbol><symbol id="icon-arrow" viewBox="0 0 82 32"><path fill="#fcfcfc" style="fill:var(--color1,#fcfcfc)" d="M81.414 17.414a2 2 0 0 0 0-2.828L68.686 1.858a2 2 0 1 0-2.828 2.828L77.172 16 65.858 27.314a2 2 0 1 0 2.828 2.828l12.728-12.728zM0 18h80v-4H0v4z"/></symbol><symbol id="icon-mobile-menu" viewBox="0 0 32 32"><path fill="none" stroke="#fff" style="stroke:var(--color1,#fff)" stroke-linecap="round" stroke-width="2" d="M6 10h20M6 16h20M6 22h20"/></symbol><symbol id="icon-logo" viewBox="0 0 35 32"><path fill="#f8d24e" style="fill:var(--color1,#f8d24e)" d="M17.384 14.109c1.632-4.366-1.748-6.756-3.988-8.327-.428-.321-.857-.621-1.204-.895-.62-.516-1.077-1.196-1.316-1.96s-.251-1.58-.033-2.351a.447.447 0 0 0-.133-.455.474.474 0 0 0-.471-.094 7.592 7.592 0 0 0-2.078 1.22c-.597.454-1.081 1.037-1.415 1.703s-.507 1.4-.509 2.143a5.671 5.671 0 0 0-1.109 1.144 4.154 4.154 0 0 0-.818 2.681c-.686.621-1.197 1.407-1.483 2.281s-.337 1.806-.149 2.706c-.273.163-.484.409-.601.701s-.134.615-.047.917.272.569.526.758c.255.189.566.29.885.288h.03v2.483c0 .252.102.494.282.672s.426.278.682.278h.75l1.221 10.43c.025.232.137.447.313.603s.405.242.642.242h5.08c.237 0 .466-.087.643-.242s.29-.37.317-.602l1.221-10.43h.75c.256 0 .501-.1.682-.278s.282-.42.282-.672V16.57h.03c.387 0 .759-.152 1.033-.422s.428-.636.428-1.018a1.422 1.422 0 0 0-.429-1.026l-.013.004zM6.388 6.188c.617 2.284 2.999 3.184 5.17 3.986a.466.466 0 0 0 .394.044.475.475 0 0 0 .287-.271.447.447 0 0 0-.028-.39.459.459 0 0 0-.322-.227C9.55 8.456 7.344 7.641 7.177 5.306c-.039-.642.083-1.283.356-1.867s.688-1.093 1.208-1.481a6.983 6.983 0 0 1 1.045-.709 5.362 5.362 0 0 0 0 .878c.05.669.235 1.322.546 1.919s.74 1.126 1.262 1.557c.356.3.797.608 1.285.937 1.127.798 2.407 1.689 3.221 2.897a4.449 4.449 0 0 1 .467 4.285h-1.893c-3.902 0-8.387-1.064-9.274-4.045-.176-.613-.174-1.263.004-1.875s.527-1.164 1.007-1.591L6.39 6.19zm3.513 14.394 1.431 1.41-1.431 1.41-1.431-1.419 1.431-1.402zm3.281 3.704L12 25.451l-1.431-1.41L12 22.635l1.242 1.22-.06.431zM9.901 27.52 8.47 26.11l1.431-1.41 1.431 1.41-1.431 1.41zm-.656-3.471-1.431 1.41-1.191-1.174-.051-.422 1.242-1.22 1.431 1.406zm-2.09 2.061-.287.283-.073-.642.36.359zm-.15 1.444.81-.798 1.572 1.562a.72.72 0 0 0 .03.093H7.104l-.099-.857zm4.986-.798.81.798-.099.845h-2.378l1.666-1.643zm.943-.363-.287-.283.364-.359-.077.642zm.428-3.691-.715-.718.908-.895-.193 1.613zm-1.375-1.36-1.358-1.334h2.716l-1.358 1.334zm-4.177 0-1.358-1.334h2.716L7.81 21.342zm4.627 9.02H7.361c-.008-.001-.015-.004-.02-.01s-.009-.012-.01-.02l-.12-1.013h5.38l-.116 1.013c-.001.008-.005.016-.011.021s-.014.008-.023.008h-.004zm3.928-14.711h-1.491a.48.48 0 0 0-.359.117.462.462 0 0 0-.153.34.457.457 0 0 0 .32.436.48.48 0 0 0 .192.021h.531v2.483c-.001.008-.005.016-.011.021s-.014.008-.023.008H4.418c-.008 0-.017-.003-.023-.008s-.01-.013-.011-.021v-2.483h8.486c.116-.011.223-.064.301-.149a.457.457 0 0 0-.301-.767H3.446a.549.549 0 0 1-.406-.135.513.513 0 0 1 0-.772.543.543 0 0 1 .406-.135h.972c.116-.011.223-.064.301-.149a.457.457 0 0 0-.301-.767h-.857c-.123-.643-.103-1.304.058-1.938s.46-1.226.875-1.736c.3.921 1.071 2.179 2.999 3.18 1.812.933 4.211 1.41 7.128 1.41h1.713a.547.547 0 0 1 .406.135.51.51 0 0 1 .128.597.524.524 0 0 1-.317.285.517.517 0 0 1-.217.025h.03zM19.859 28.392l-.342.525.007.004.335-.529zm3.682.177.626-.014-.016-.725-.715.121.105.617zm.043 1.926.159.606.478-.126-.011-.494-.626.014zm-4.832.092.141-.61-.004-.001-.137.611zm-2.385-1.064.405-.478-.001-.001-.404.478zm-.862-1.957.626.003v-.003h-.626zm.299-1.37-.562-.276v.001l.562.276zm1.921-1.639.222.586.002-.001-.224-.585zm6.152-.159.624.049.041-.529-.515-.128-.151.608zm-.153 1.963-.117.615.687.13.054-.697-.624-.049zm-1.67-.804c-.94 0-1.73.1-2.307.354-.296.13-.565.313-.761.571a1.474 1.474 0 0 0-.298.905h1.252c0-.073.018-.114.044-.149.032-.043.106-.111.267-.182.336-.148.916-.248 1.803-.248v-1.252zm-3.366 1.832c0 .644.289 1.176.829 1.528l.684-1.049a.508.508 0 0 1-.26-.478h-1.252zm.836 1.532c.512.324 1.186.446 1.944.446v-1.253c-.654 0-1.051-.111-1.273-.251l-.67 1.058zm1.943.445c.743 0 1.469-.06 2.178-.18l-.21-1.235c-.637.108-1.293.162-1.968.162v1.253zm1.448-.783.043 1.926 1.252-.028-.043-1.926-1.252.028zm.509 1.307a9.327 9.327 0 0 1-2.373.285v1.252c.96 0 1.858-.107 2.691-.326l-.319-1.211zm-2.372.285c-.885 0-1.601-.07-2.159-.198l-.281 1.221c.681.157 1.498.23 2.44.23v-1.252zm-2.163-.199c-.598-.134-1.029-.276-1.317-.416l-.55 1.125c.413.202.952.37 1.594.513l.273-1.222zm-1.318-.416a3.813 3.813 0 0 1-.799-.514l-.81.955c.313.265.667.493 1.06.685l.55-1.125zm-.8-.515c-.426-.36-.644-.83-.64-1.476l-1.252-.006c-.005.985.352 1.82 1.084 2.438l.809-.957zm-.64-1.479c0-.421.083-.782.236-1.094l-1.125-.551a3.701 3.701 0 0 0-.364 1.645h1.252zm.235-1.094c.285-.579.788-1.029 1.581-1.33l-.444-1.171c-1.034.392-1.811 1.035-2.26 1.948l1.124.553zm1.583-1.33c.833-.32 1.763-.484 2.797-.484v-1.253c-1.168 0-2.252.186-3.246.568l.449 1.169zm2.797-.485c1.054 0 2.047.117 2.981.348l.301-1.216a13.586 13.586 0 0 0-3.282-.385v1.253zm2.507-.308-.153 1.963 1.249.097.153-1.963-1.249-.097zm.588 1.397a9.646 9.646 0 0 0-1.786-.188v1.252c.441 0 .957.053 1.553.166l.233-1.231zm6.11 1-.003.626.636.004-.007-.636-.626.007zm-.269-.813-.426.459.005.005.421-.464zm-1.559.061.434.452.005-.004-.438-.447zm-.38.74-.618-.102-.119.724.733.004.003-.626zm4.606 3.339.378.499.225-.171.021-.282-.624-.047zm-1.352.502-.135-.612-.004.001.138.611zm-4.697-.171-.214.589.005.002.208-.59zm-1.07-.569-.389.491.008.006.381-.497zm-.716-.899-.561.278.001.003.56-.28zm.734-3.798.416.468-.417-.467zm5.725-.679.25-.574-.006-.003-.245.576zm1.437 1.321-.563.274.002.003.562-.277zm.244 1.095.625.045.002-.023v-.023h-.626zm-.073 1.009-.003.626.585.003.042-.584-.625-.045zm-4.96-.025.003-.626-.817-.004.208.79.606-.16zm.71.875-.308.545.003.001.306-.547zm3.803-.214v-.626h-.125l-.116.048.241.578zm.331 0 .624.047.05-.673h-.675v.626zm-1.888-1.78c-.005-.453-.109-.939-.475-1.271l-.841.928c-.007-.007.007.001.025.055.019.057.037.153.039.301l1.252-.013zm-.469-1.266c-.329-.305-.76-.406-1.184-.406v1.252c.244 0 .318.058.332.071l.852-.918zm-1.184-.406c-.466 0-.9.146-1.239.479l.877.895c.068-.067.169-.121.363-.121v-1.252zm-1.235.474a1.91 1.91 0 0 0-.563 1.09l1.236.203a.666.666 0 0 1 .195-.39l-.867-.904zm.051 1.818 2.208.012.007-1.253-2.208-.012-.007 1.253zm4.23 2.214c-.137.104-.472.249-1.108.389l.269 1.223c.661-.145 1.227-.335 1.595-.614l-.757-.998zm-1.111.39a7.946 7.946 0 0 1-1.752.205v1.252c.662 0 1.338-.079 2.028-.236l-.277-1.222zm-1.752.205c-.59 0-1.076-.028-1.464-.08l-.167 1.241c.461.062 1.006.091 1.631.091v-1.252zm-1.464-.08a5.672 5.672 0 0 1-1.135-.276l-.417 1.181c.455.161.917.273 1.385.336l.167-1.241zm-1.129-.274a3.363 3.363 0 0 1-.903-.477l-.762.994c.357.274.772.492 1.238.661l.427-1.177zm-.895-.471a1.987 1.987 0 0 1-.544-.688l-1.12.56c.221.441.515.815.887 1.11l.777-.982zm-.543-.686c-.132-.266-.21-.609-.21-1.05h-1.253c0 .587.105 1.129.34 1.605l1.123-.555zm-.211-1.049c0-.441.079-.83.23-1.176l-1.149-.499a4.163 4.163 0 0 0-.333 1.674h1.253zm.23-1.176c.158-.364.351-.633.57-.827l-.833-.935a3.56 3.56 0 0 0-.886 1.264l1.149.499zm.57-.828c.673-.6 1.7-.948 3.179-.948v-1.253c-1.66 0-3.031.39-4.013 1.266l.834.935zm3.179-.948c.664 0 1.29.126 1.884.378l.489-1.153a6.018 6.018 0 0 0-2.373-.478v1.253zm1.878.376c.554.242.912.585 1.124 1.021l1.126-.548c-.359-.738-.959-1.276-1.75-1.621l-.501 1.148zm1.126 1.024c.117.237.18.506.18.817h1.252c0-.487-.1-.948-.309-1.372l-1.123.555zm.182.772-.073 1.009 1.249.091.073-1.009-1.249-.091zm.554.429-4.96-.024-.006 1.252 4.96.024.006-1.252zm-5.569.761c.146.555.505.976 1.007 1.26l.616-1.09c-.248-.14-.363-.302-.412-.489l-1.211.319zm1.01 1.262c.508.284 1.143.398 1.853.398v-1.252c-.595 0-.991-.098-1.242-.238l-.611 1.093zm1.853.397c.762 0 1.598-.206 2.497-.58l-.481-1.156c-.805.335-1.473.484-2.016.484v1.252zm2.256-.532h.33v-1.252h-.33v1.252zm-.294-.673-.116 1.553 1.249.093.116-1.553-1.249-.093z"/></symbol><symbol id="icon-close-btn" viewBox="0 0 32 32"><path d="M23.884 6.706 16 14.59 8.116 6.706a.995.995 0 0 0-1.38.031 1 1 0 0 0-.031 1.38l7.88 7.884-7.882 7.882a1.002 1.002 0 0 0-.018 1.427.998.998 0 0 0 1.427-.015l7.886-7.882 7.884 7.884a1 1 0 0 0 1.38-.03 1 1 0 0 0 .03-1.38l-7.884-7.884 7.884-7.886a1.002 1.002 0 0 0 .018-1.427.998.998 0 0 0-1.427.015v.002z"/></symbol><symbol id="icon-buy" viewBox="0 0 22 32"><path stroke-linejoin="round" stroke-linecap="round" stroke-width="6.4" d="M3.2 3.2 19.04 16 3.2 28.8"/></symbol></symbol></defs></svg>