<svg aria-hidden="true" style="position:absolute;width:0;height:0;overflow:hidden" xmlns="http://www.w3.org/2000/svg">
    <defs>
        <symbol id="icon-arrow-btn" viewBox="0 0 22 32">
            <path stroke-linejoin="round" stroke-linecap="round" stroke-width="6.4" d="M3.2 3.2 19.04 16 3.2 28.8" />
        </symbol>
        <symbol id="icon-telegram" viewBox="0 0 44 32">
            <path
                d="m17.343 21.048-.675 8.86c.966 0 1.384-.387 1.885-.852l4.527-4.038 9.381 6.412c1.72.895 2.933.424 3.397-1.477l6.157-26.929.002-.002c.546-2.374-.92-3.302-2.596-2.72L3.227 13.235c-2.47.895-2.433 2.18-.42 2.762l9.253 2.686L33.554 6.131c1.012-.625 1.931-.279 1.175.346l-17.386 14.57z" />
        </symbol>
        <symbol id="icon-github" viewBox="0 0 32 32">
            <path
                d="M16 0C7.212 0 0 7.212 0 16c0 7.499 5.262 14.312 12.25 16v-5.293c-.692.152-1.33.156-2.034-.052-.946-.279-1.714-.909-2.284-1.869-.364-.613-1.008-1.278-1.68-1.23l-.165-1.868c1.453-.124 2.711.886 3.457 2.14.332.558.713.884 1.203 1.029.473.14.982.072 1.574-.137.149-1.186.692-1.63 1.102-2.255v-.001c-4.167-.622-5.828-2.832-6.488-4.578-.874-2.317-.405-5.212 1.14-7.041.03-.036.084-.129.063-.194-.708-2.139.155-3.909.187-4.097.817.242.95-.243 3.551 1.337l.449.27c.188.112.129.048.317.034A13.544 13.544 0 0 1 16 7.723c1.136.015 2.273.178 3.404.484l.145.015c-.013-.002.04-.009.127-.062 3.248-1.968 3.132-1.324 4.003-1.608.032.188.883 1.987.182 4.099-.095.291 2.816 2.956 1.203 7.235-.659 1.746-2.32 3.957-6.487 4.578v.001c.534.814 1.176 1.247 1.173 2.927V32C26.738 30.312 32 23.499 32 16c0-8.788-7.212-16-16-16z" />
        </symbol>
        <symbol id="icon-facebook" viewBox="0 0 16 32">
            <path
                d="M14.143 15.972h-4.034v14.865H3.997V15.972H1.09v-5.224h2.907V7.367c0-2.418 1.142-6.203 6.166-6.203l4.527.019v5.071h-3.285c-.539 0-1.296.271-1.296 1.424v3.075h4.567l-.534 5.219z" />
        </symbol>
        <symbol id="icon-arrow-hover" viewBox="0 0 82 32">
            <path
                d="M81.414 17.414a2 2 0 0 0 0-2.828L68.686 1.858a2 2 0 1 0-2.828 2.828L77.172 16 65.858 27.314a2 2 0 1 0 2.828 2.828l12.728-12.728zM0 18h80v-4H0v4z" />
        </symbol>
        <symbol id="icon-arrow-focus" viewBox="0 0 102 32">
            <path
                d="M101.414 17.414a2 2 0 0 0 0-2.828L88.686 1.858a2 2 0 1 0-2.828 2.828L97.172 16 85.858 27.314a2 2 0 1 0 2.828 2.828l12.728-12.728zM0 18h100v-4H0v4z" />
        </symbol>
        <symbol id="icon-arrow" viewBox="0 0 69 32">
            <path
                d="M68.081 17.414a2 2 0 0 0 0-2.829L55.353 1.857a2 2 0 1 0-2.828 2.828l11.314 11.314-11.314 11.314a2 2 0 1 0 2.828 2.828l12.728-12.728zM0 18h66.667v-4H0v4z" />
        </symbol>
        <symbol id="play_button" viewBox="0 0 32 32">
            <path d="M29.897 13.806l-26.537-13.269c-0.292-0.138-0.634-0.219-0.994-0.219-1.295 0-2.347 1.041-2.365 2.332l-0 0.002v26.526c-0 0.006-0 0.013-0 0.019 0 1.3 1.054 2.354 2.354 2.354 0.392 0 0.762-0.096 1.087-0.266l-0.013 0.006 26.469-13.269c0.78-0.398 1.304-1.195 1.304-2.114s-0.525-1.717-1.291-2.108l-0.013-0.006v0.011z"></path>
        </symbol>
        <symbol id="crest" viewBox="0 0 32 32">
            <path d="M18.006 16l11.79-11.79c0.233-0.272 0.355-0.622 0.341-0.98s-0.162-0.697-0.416-0.951c-0.253-0.253-0.593-0.402-0.951-0.415s-0.708 0.108-0.98 0.341l-11.79 11.79-11.79-11.804c-0.268-0.268-0.631-0.418-1.010-0.418s-0.742 0.15-1.010 0.418-0.418 0.631-0.418 1.010c0 0.379 0.15 0.742 0.418 1.010l11.804 11.79-11.804 11.79c-0.149 0.128-0.27 0.284-0.355 0.461s-0.133 0.369-0.141 0.564c-0.008 0.196 0.025 0.391 0.097 0.574s0.18 0.348 0.319 0.487c0.139 0.139 0.304 0.247 0.487 0.319s0.378 0.105 0.574 0.097c0.196-0.008 0.388-0.056 0.565-0.141s0.333-0.206 0.461-0.355l11.804-11.79 11.79 11.79c0.272 0.233 0.622 0.355 0.98 0.341s0.697-0.162 0.951-0.416 0.402-0.593 0.416-0.951c0.014-0.358-0.108-0.708-0.341-0.98l-11.79-11.79z"></path>
        </symbol>
    </defs>
</svg>