<svg aria-hidden="true" style="position:absolute;width:0;height:0;overflow:hidden" xmlns="http://www.w3.org/2000/svg">
    <defs>
        <symbol id="icon-arrow-btn" viewBox="0 0 22 32">
            <path stroke-linejoin="round" stroke-linecap="round" stroke-width="6.4" d="M3.2 3.2 19.04 16 3.2 28.8" />
        </symbol>
        <symbol id="icon-telegram" viewBox="0 0 44 32">
            <path
                d="m17.343 21.048-.675 8.86c.966 0 1.384-.387 1.885-.852l4.527-4.038 9.381 6.412c1.72.895 2.933.424 3.397-1.477l6.157-26.929.002-.002c.546-2.374-.92-3.302-2.596-2.72L3.227 13.235c-2.47.895-2.433 2.18-.42 2.762l9.253 2.686L33.554 6.131c1.012-.625 1.931-.279 1.175.346l-17.386 14.57z" />
        </symbol>
        <symbol id="icon-github" viewBox="0 0 32 32">
            <path
                d="M16 0C7.212 0 0 7.212 0 16c0 7.499 5.262 14.312 12.25 16v-5.293c-.692.152-1.33.156-2.034-.052-.946-.279-1.714-.909-2.284-1.869-.364-.613-1.008-1.278-1.68-1.23l-.165-1.868c1.453-.124 2.711.886 3.457 2.14.332.558.713.884 1.203 1.029.473.14.982.072 1.574-.137.149-1.186.692-1.63 1.102-2.255v-.001c-4.167-.622-5.828-2.832-6.488-4.578-.874-2.317-.405-5.212 1.14-7.041.03-.036.084-.129.063-.194-.708-2.139.155-3.909.187-4.097.817.242.95-.243 3.551 1.337l.449.27c.188.112.129.048.317.034A13.544 13.544 0 0 1 16 7.723c1.136.015 2.273.178 3.404.484l.145.015c-.013-.002.04-.009.127-.062 3.248-1.968 3.132-1.324 4.003-1.608.032.188.883 1.987.182 4.099-.095.291 2.816 2.956 1.203 7.235-.659 1.746-2.32 3.957-6.487 4.578v.001c.534.814 1.176 1.247 1.173 2.927V32C26.738 30.312 32 23.499 32 16c0-8.788-7.212-16-16-16z" />
        </symbol>
        <symbol id="icon-facebook" viewBox="0 0 16 32">
            <path
                d="M14.143 15.972h-4.034v14.865H3.997V15.972H1.09v-5.224h2.907V7.367c0-2.418 1.142-6.203 6.166-6.203l4.527.019v5.071h-3.285c-.539 0-1.296.271-1.296 1.424v3.075h4.567l-.534 5.219z" />
        </symbol>
        <symbol id="icon-arrow-hover" viewBox="0 0 82 32">
            <path
                d="M81.414 17.414a2 2 0 0 0 0-2.828L68.686 1.858a2 2 0 1 0-2.828 2.828L77.172 16 65.858 27.314a2 2 0 1 0 2.828 2.828l12.728-12.728zM0 18h80v-4H0v4z" />
        </symbol>
        <symbol id="icon-arrow-focus" viewBox="0 0 102 32">
            <path
                d="M101.414 17.414a2 2 0 0 0 0-2.828L88.686 1.858a2 2 0 1 0-2.828 2.828L97.172 16 85.858 27.314a2 2 0 1 0 2.828 2.828l12.728-12.728zM0 18h100v-4H0v4z" />
        </symbol>
        <symbol id="icon-arrow" viewBox="0 0 69 32">
            <path
                d="M68.081 17.414a2 2 0 0 0 0-2.829L55.353 1.857a2 2 0 1 0-2.828 2.828l11.314 11.314-11.314 11.314a2 2 0 1 0 2.828 2.828l12.728-12.728zM0 18h66.667v-4H0v4z" />
        </symbol>

        <symbol id="play_button" viewBox="0 0 32 32">
            <path d="M29.897 13.806l-26.537-13.269c-0.292-0.138-0.634-0.219-0.994-0.219-1.295 0-2.347 1.041-2.365 2.332l-0 0.002v26.526c-0 0.006-0 0.013-0 0.019 0 1.3 1.054 2.354 2.354 2.354 0.392 0 0.762-0.096 1.087-0.266l-0.013 0.006 26.469-13.269c0.78-0.398 1.304-1.195 1.304-2.114s-0.525-1.717-1.291-2.108l-0.013-0.006v0.011z"></path>
        </symbol>
        <symbol id="crest" viewBox="0 0 32 32">
            <path d="M18.006 16l11.79-11.79c0.233-0.272 0.355-0.622 0.341-0.98s-0.162-0.697-0.416-0.951c-0.253-0.253-0.593-0.402-0.951-0.415s-0.708 0.108-0.98 0.341l-11.79 11.79-11.79-11.804c-0.268-0.268-0.631-0.418-1.010-0.418s-0.742 0.15-1.010 0.418-0.418 0.631-0.418 1.010c0 0.379 0.15 0.742 0.418 1.010l11.804 11.79-11.804 11.79c-0.149 0.128-0.27 0.284-0.355 0.461s-0.133 0.369-0.141 0.564c-0.008 0.196 0.025 0.391 0.097 0.574s0.18 0.348 0.319 0.487c0.139 0.139 0.304 0.247 0.487 0.319s0.378 0.105 0.574 0.097c0.196-0.008 0.388-0.056 0.565-0.141s0.333-0.206 0.461-0.355l11.804-11.79 11.79 11.79c0.272 0.233 0.622 0.355 0.98 0.341s0.697-0.162 0.951-0.416 0.402-0.593 0.416-0.951c0.014-0.358-0.108-0.708-0.341-0.98l-11.79-11.79z"></path>
        <symbol id="icon-close" viewBox="0 0 30 32">
            <path d="M16.239 15.371l6.935-7.007c0.137-0.162 0.209-0.37 0.201-0.582s-0.095-0.415-0.245-0.565c-0.149-0.151-0.349-0.239-0.559-0.247s-0.416 0.064-0.577 0.203l-6.935 7.007-6.935-7.016c-0.158-0.159-0.371-0.249-0.594-0.249s-0.436 0.089-0.594 0.249c-0.158 0.159-0.246 0.375-0.246 0.6s0.088 0.441 0.246 0.6l6.944 7.007-6.944 7.007c-0.088 0.076-0.159 0.169-0.209 0.274s-0.078 0.219-0.083 0.336c-0.004 0.116 0.015 0.232 0.057 0.341s0.106 0.207 0.187 0.289c0.082 0.082 0.179 0.147 0.286 0.189s0.222 0.062 0.337 0.058c0.115-0.005 0.228-0.033 0.332-0.084s0.196-0.123 0.271-0.211l6.944-7.007 6.935 7.007c0.16 0.138 0.366 0.211 0.577 0.203s0.41-0.096 0.559-0.247c0.149-0.15 0.236-0.352 0.245-0.565s-0.064-0.421-0.201-0.582l-6.935-7.007z"></path>
        </symbol>
        <symbol id="icon-arrow" viewBox="0 0 82 32">
            <path fill="#fcfcfc" style="fill: var(--color1, #fcfcfc)" d="M81.414 17.414c0.781-0.781 0.781-2.047 0-2.828l-12.728-12.728c-0.781-0.781-2.047-0.781-2.828 0s-0.781 2.047 0 2.828l11.314 11.314-11.314 11.314c-0.781 0.781-0.781 2.047 0 2.828s2.047 0.781 2.828 0l12.728-12.728zM0 18h80v-4h-80v4z"></path>
        </symbol>
        <symbol id="icon-mobile-menu" viewBox="0 0 32 32">
            <path fill="none" stroke="#fff" style="stroke: var(--color1, #fff)" stroke-linejoin="miter" stroke-linecap="round" stroke-miterlimit="4" stroke-width="2" d="M6 10h20"></path>
            <path fill="none" stroke="#fff" style="stroke: var(--color1, #fff)" stroke-linejoin="miter" stroke-linecap="round" stroke-miterlimit="4" stroke-width="2" d="M6 16h20"></path>
            <path fill="none" stroke="#fff" style="stroke: var(--color1, #fff)" stroke-linejoin="miter" stroke-linecap="round" stroke-miterlimit="4" stroke-width="2" d="M6 22h20"></path>
        </symbol>
        <symbol id="icon-logo" viewBox="0 0 35 32">
            <path fill="#f8d24e" style="fill: var(--color1, #f8d24e)" d="M17.384 14.109c1.632-4.366-1.748-6.756-3.988-8.327-0.428-0.321-0.857-0.621-1.204-0.895-0.62-0.516-1.077-1.196-1.316-1.96s-0.251-1.58-0.033-2.351c0.022-0.081 0.022-0.166-0.002-0.246s-0.069-0.153-0.131-0.209-0.139-0.095-0.222-0.112c-0.083-0.016-0.169-0.010-0.249 0.018-0.754 0.294-1.456 0.706-2.078 1.22-0.597 0.454-1.081 1.037-1.415 1.703s-0.507 1.4-0.509 2.143c-0.422 0.328-0.796 0.713-1.109 1.144-0.576 0.775-0.865 1.722-0.818 2.681-0.686 0.621-1.197 1.407-1.483 2.281s-0.337 1.806-0.149 2.706c-0.273 0.163-0.484 0.409-0.601 0.701s-0.134 0.615-0.047 0.917 0.272 0.569 0.526 0.758c0.255 0.189 0.566 0.29 0.885 0.288h0.030v2.483c0 0.252 0.102 0.494 0.282 0.672s0.426 0.278 0.682 0.278h0.75l1.221 10.43c0.025 0.232 0.137 0.447 0.313 0.603s0.405 0.242 0.642 0.242h5.080c0.237-0 0.466-0.087 0.643-0.242s0.29-0.37 0.317-0.602l1.221-10.43h0.75c0.256 0 0.501-0.1 0.682-0.278s0.282-0.42 0.282-0.672v-2.483h0.030c0.387 0 0.759-0.152 1.033-0.422s0.428-0.636 0.428-1.018c0.002-0.191-0.035-0.38-0.109-0.556s-0.182-0.336-0.32-0.47l-0.013 0.004zM6.388 6.188c0.617 2.284 2.999 3.184 5.17 3.986 0.058 0.035 0.124 0.058 0.192 0.065s0.137 0 0.202-0.021c0.065-0.022 0.124-0.057 0.174-0.104s0.088-0.104 0.113-0.167c0.025-0.063 0.035-0.131 0.030-0.198s-0.025-0.133-0.058-0.192c-0.033-0.059-0.080-0.11-0.135-0.149s-0.12-0.066-0.187-0.078c-2.339-0.874-4.545-1.689-4.712-4.024-0.039-0.642 0.083-1.283 0.356-1.867s0.688-1.093 1.208-1.481c0.326-0.267 0.676-0.505 1.045-0.709-0.024 0.292-0.024 0.586 0 0.878 0.050 0.669 0.235 1.322 0.546 1.919s0.74 1.126 1.262 1.557c0.356 0.3 0.797 0.608 1.285 0.937 1.127 0.798 2.407 1.689 3.221 2.897 0.434 0.619 0.704 1.336 0.786 2.084s-0.028 1.505-0.319 2.201h-1.893c-3.902 0-8.387-1.064-9.274-4.045-0.176-0.613-0.174-1.263 0.004-1.875s0.527-1.164 1.007-1.591l-0.021-0.021zM9.901 20.582l1.431 1.41-1.431 1.41-1.431-1.419 1.431-1.402zM13.182 24.286l-1.182 1.165-1.431-1.41 1.431-1.406 1.242 1.22-0.060 0.431zM9.901 27.52l-1.431-1.41 1.431-1.41 1.431 1.41-1.431 1.41zM9.245 24.049l-1.431 1.41-1.191-1.174-0.051-0.422 1.242-1.22 1.431 1.406zM7.155 26.11l-0.287 0.283-0.073-0.642 0.36 0.359zM7.005 27.554l0.81-0.798 1.572 1.562c0.008 0.032 0.018 0.063 0.030 0.093h-2.313l-0.099-0.857zM11.991 26.756l0.81 0.798-0.099 0.845h-2.378l1.666-1.643zM12.934 26.393l-0.287-0.283 0.364-0.359-0.077 0.642zM13.362 22.702l-0.715-0.718 0.908-0.895-0.193 1.613zM11.987 21.342l-1.358-1.334h2.716l-1.358 1.334zM7.81 21.342l-1.358-1.334h2.716l-1.358 1.334zM12.437 30.362h-5.076c-0.008-0.001-0.015-0.004-0.020-0.010s-0.009-0.012-0.010-0.020l-0.12-1.013h5.38l-0.116 1.013c-0.001 0.008-0.005 0.016-0.011 0.021s-0.014 0.008-0.023 0.008h-0.004zM16.365 15.651h-1.491c-0.065-0.006-0.13 0.001-0.192 0.021s-0.119 0.053-0.167 0.096c-0.048 0.043-0.087 0.096-0.113 0.154s-0.040 0.122-0.040 0.186c0 0.064 0.014 0.128 0.040 0.186s0.065 0.111 0.113 0.154c0.048 0.043 0.105 0.076 0.167 0.096s0.127 0.027 0.192 0.021h0.531v2.483c-0.001 0.008-0.005 0.016-0.011 0.021s-0.014 0.008-0.023 0.008h-10.953c-0.008 0-0.017-0.003-0.023-0.008s-0.010-0.013-0.011-0.021v-2.483h8.486c0.116-0.011 0.223-0.064 0.301-0.149s0.121-0.195 0.121-0.309c0-0.114-0.043-0.225-0.121-0.309s-0.185-0.138-0.301-0.149h-9.424c-0.073 0.006-0.148-0.002-0.217-0.025s-0.134-0.061-0.189-0.11c-0.054-0.049-0.098-0.109-0.128-0.175s-0.045-0.139-0.045-0.211c0-0.073 0.015-0.145 0.045-0.211s0.073-0.126 0.128-0.175c0.054-0.049 0.119-0.086 0.189-0.11s0.144-0.032 0.217-0.025h0.972c0.116-0.011 0.223-0.064 0.301-0.149s0.121-0.195 0.121-0.309c0-0.114-0.043-0.225-0.121-0.309s-0.185-0.138-0.301-0.149h-0.857c-0.123-0.643-0.103-1.304 0.058-1.938s0.46-1.226 0.875-1.736c0.3 0.921 1.071 2.179 2.999 3.18 1.812 0.933 4.211 1.41 7.128 1.41h1.713c0.074-0.006 0.148 0.002 0.217 0.025s0.134 0.061 0.189 0.11c0.054 0.049 0.098 0.109 0.128 0.175s0.045 0.138 0.045 0.211c0 0.073-0.015 0.145-0.045 0.211s-0.073 0.126-0.128 0.175c-0.054 0.049-0.119 0.086-0.189 0.11s-0.144 0.032-0.217 0.025h0.030z"></path>
            <path fill="#f8d24e" style="fill: var(--color1, #f8d24e)" d="M19.859 28.392l-0.342 0.525 0.007 0.004 0.335-0.529zM23.541 28.569l0.626-0.014-0.016-0.725-0.715 0.121 0.105 0.617zM23.584 30.495l0.159 0.606 0.478-0.126-0.011-0.494-0.626 0.014zM18.752 30.587l0.141-0.61-0.004-0.001-0.137 0.611zM16.367 29.523l0.405-0.478-0.001-0.001-0.404 0.478zM15.505 27.566l0.626 0.003v-0.003h-0.626zM15.804 26.196l-0.562-0.276-0 0.001 0.562 0.276zM17.725 24.557l0.222 0.586 0.002-0.001-0.224-0.585zM23.877 24.398l0.624 0.049 0.041-0.529-0.515-0.128-0.151 0.608zM23.724 26.361l-0.117 0.615 0.687 0.13 0.054-0.697-0.624-0.049zM22.054 25.557c-0.94 0-1.73 0.1-2.307 0.354-0.296 0.13-0.565 0.313-0.761 0.571-0.202 0.267-0.298 0.577-0.298 0.905h1.252c0-0.073 0.018-0.114 0.044-0.149 0.032-0.043 0.106-0.111 0.267-0.182 0.336-0.148 0.916-0.248 1.803-0.248v-1.252zM18.688 27.389c0 0.644 0.289 1.176 0.829 1.528l0.684-1.049c-0.186-0.121-0.26-0.258-0.26-0.478h-1.252zM19.524 28.921c0.512 0.324 1.186 0.446 1.944 0.446v-1.253c-0.654 0-1.051-0.111-1.273-0.251l-0.67 1.058zM21.467 29.366c0.743 0 1.469-0.060 2.178-0.18l-0.21-1.235c-0.637 0.108-1.293 0.162-1.968 0.162v1.253zM22.915 28.583l0.043 1.926 1.252-0.028-0.043-1.926-1.252 0.028zM23.424 29.89c-0.716 0.188-1.506 0.285-2.373 0.285v1.252c0.96 0 1.858-0.107 2.691-0.326l-0.319-1.211zM21.052 30.175c-0.885 0-1.601-0.070-2.159-0.198l-0.281 1.221c0.681 0.157 1.498 0.23 2.44 0.23v-1.252zM18.889 29.976c-0.598-0.134-1.029-0.276-1.317-0.416l-0.55 1.125c0.413 0.202 0.952 0.37 1.594 0.513l0.273-1.222zM17.571 29.56c-0.309-0.151-0.574-0.323-0.799-0.514l-0.81 0.955c0.313 0.265 0.667 0.493 1.060 0.685l0.55-1.125zM16.771 29.045c-0.426-0.36-0.644-0.83-0.64-1.476l-1.252-0.006c-0.005 0.985 0.352 1.82 1.084 2.438l0.809-0.957zM16.131 27.566c0-0.421 0.083-0.782 0.236-1.094l-1.125-0.551c-0.246 0.503-0.364 1.055-0.364 1.645h1.252zM16.366 26.472c0.285-0.579 0.788-1.029 1.581-1.33l-0.444-1.171c-1.034 0.392-1.811 1.035-2.26 1.948l1.124 0.553zM17.949 25.142c0.833-0.32 1.763-0.484 2.797-0.484v-1.253c-1.168 0-2.252 0.186-3.246 0.568l0.449 1.169zM20.746 24.657c1.054 0 2.047 0.117 2.981 0.348l0.301-1.216c-1.040-0.258-2.134-0.385-3.282-0.385v1.253zM23.253 24.349l-0.153 1.963 1.249 0.097 0.153-1.963-1.249-0.097zM23.841 25.746c-0.652-0.124-1.248-0.188-1.786-0.188v1.252c0.441 0 0.957 0.053 1.553 0.166l0.233-1.231zM29.951 26.746l-0.003 0.626 0.636 0.004-0.007-0.636-0.626 0.007zM29.682 25.933l-0.426 0.459 0.005 0.005 0.421-0.464zM28.123 25.994l0.434 0.452 0.005-0.004-0.438-0.447zM27.743 26.734l-0.618-0.102-0.119 0.724 0.733 0.004 0.003-0.626zM32.349 30.073l0.378 0.499 0.225-0.171 0.021-0.282-0.624-0.047zM30.997 30.575l-0.135-0.612-0.004 0.001 0.138 0.611zM26.3 30.404l-0.214 0.589 0.005 0.002 0.208-0.59zM25.23 29.835l-0.389 0.491 0.008 0.006 0.381-0.497zM24.514 28.936l-0.561 0.278 0.001 0.003 0.56-0.28zM25.248 25.138l0.416 0.468 0-0-0.417-0.467zM30.973 24.459l0.25-0.574-0.006-0.003-0.245 0.576zM32.41 25.78l-0.563 0.274 0.002 0.003 0.562-0.277zM32.654 26.875l0.625 0.045 0.002-0.023v-0.023h-0.626zM32.581 27.884l-0.003 0.626 0.585 0.003 0.042-0.584-0.625-0.045zM27.621 27.859l0.003-0.626-0.817-0.004 0.208 0.79 0.606-0.16zM28.331 28.734l-0.308 0.545 0.003 0.001 0.306-0.547zM32.134 28.52v-0.626h-0.125l-0.116 0.048 0.241 0.578zM32.465 28.52l0.624 0.047 0.050-0.673h-0.675v0.626zM30.577 26.74c-0.005-0.453-0.109-0.939-0.475-1.271l-0.841 0.928c-0.007-0.007 0.007 0.001 0.025 0.055 0.019 0.057 0.037 0.153 0.039 0.301l1.252-0.013zM30.108 25.474c-0.329-0.305-0.76-0.406-1.184-0.406v1.252c0.244 0 0.318 0.058 0.332 0.071l0.852-0.918zM28.924 25.068c-0.466 0-0.9 0.146-1.239 0.479l0.877 0.895c0.068-0.067 0.169-0.121 0.363-0.121v-1.252zM27.689 25.542c-0.308 0.296-0.494 0.669-0.563 1.090l1.236 0.203c0.029-0.174 0.096-0.294 0.195-0.39l-0.867-0.904zM27.74 27.36l2.208 0.012 0.007-1.253-2.208-0.012-0.007 1.253zM31.97 29.574c-0.137 0.104-0.472 0.249-1.108 0.389l0.269 1.223c0.661-0.145 1.227-0.335 1.595-0.614l-0.757-0.998zM30.859 29.964c-0.607 0.137-1.19 0.205-1.752 0.205v1.252c0.662 0 1.338-0.079 2.028-0.236l-0.277-1.222zM29.107 30.169c-0.59 0-1.076-0.028-1.464-0.080l-0.167 1.241c0.461 0.062 1.006 0.091 1.631 0.091v-1.252zM27.643 30.089c-0.38-0.051-0.758-0.143-1.135-0.276l-0.417 1.181c0.455 0.161 0.917 0.273 1.385 0.336l0.167-1.241zM26.514 29.815c-0.366-0.133-0.664-0.294-0.903-0.477l-0.762 0.994c0.357 0.274 0.772 0.492 1.238 0.661l0.427-1.177zM25.619 29.344c-0.215-0.17-0.398-0.395-0.544-0.688l-1.12 0.56c0.221 0.441 0.515 0.815 0.887 1.11l0.777-0.982zM25.076 28.658c-0.132-0.266-0.21-0.609-0.21-1.050h-1.253c0 0.587 0.105 1.129 0.34 1.605l1.123-0.555zM24.865 27.609c0-0.441 0.079-0.83 0.23-1.176l-1.149-0.499c-0.225 0.518-0.333 1.079-0.333 1.674h1.253zM25.095 26.433c0.158-0.364 0.351-0.633 0.57-0.827l-0.833-0.935c-0.377 0.335-0.669 0.764-0.886 1.264l1.149 0.499zM25.665 25.605c0.673-0.6 1.7-0.948 3.179-0.948v-1.253c-1.66 0-3.031 0.39-4.013 1.266l0.834 0.935zM28.844 24.657c0.664 0 1.29 0.126 1.884 0.378l0.489-1.153c-0.752-0.319-1.544-0.478-2.373-0.478v1.253zM30.722 25.033c0.554 0.242 0.912 0.585 1.124 1.021l1.126-0.548c-0.359-0.738-0.959-1.276-1.75-1.621l-0.501 1.148zM31.848 26.057c0.117 0.237 0.18 0.506 0.18 0.817h1.252c0-0.487-0.1-0.948-0.309-1.372l-1.123 0.555zM32.030 26.829l-0.073 1.009 1.249 0.091 0.073-1.009-1.249-0.091zM32.584 27.258l-4.96-0.024-0.006 1.252 4.96 0.024 0.006-1.252zM27.015 28.019c0.146 0.555 0.505 0.976 1.007 1.26l0.616-1.090c-0.248-0.14-0.363-0.302-0.412-0.489l-1.211 0.319zM28.025 29.281c0.508 0.284 1.143 0.398 1.853 0.398v-1.252c-0.595 0-0.991-0.098-1.242-0.238l-0.611 1.093zM29.878 29.678c0.762 0 1.598-0.206 2.497-0.58l-0.481-1.156c-0.805 0.335-1.473 0.484-2.016 0.484v1.252zM32.134 29.146h0.33v-1.252h-0.33v1.252zM31.84 28.473l-0.116 1.553 1.249 0.093 0.116-1.553-1.249-0.093z"></path>
        </symbol>
        <symbol id="icon-close-btn" viewBox="0 0 32 32">
            <path d="M23.884 6.706l-7.884 7.884-7.884-7.884c-0.19-0.174-0.439-0.267-0.696-0.261s-0.502 0.11-0.684 0.292c-0.182 0.182-0.286 0.427-0.292 0.684s0.088 0.506 0.261 0.696l7.88 7.884-7.882 7.882c-0.096 0.092-0.173 0.202-0.226 0.324s-0.081 0.253-0.083 0.386 0.023 0.265 0.073 0.388c0.050 0.123 0.124 0.235 0.218 0.329s0.206 0.169 0.329 0.219 0.255 0.075 0.388 0.074c0.133-0.002 0.264-0.029 0.386-0.082s0.232-0.13 0.324-0.226l7.886-7.882 7.884 7.884c0.19 0.174 0.439 0.267 0.696 0.262s0.502-0.11 0.684-0.292c0.182-0.182 0.286-0.427 0.292-0.684s-0.088-0.506-0.262-0.696l-7.884-7.884 7.884-7.886c0.096-0.092 0.173-0.202 0.226-0.324s0.081-0.253 0.083-0.386c0.002-0.133-0.023-0.265-0.073-0.388s-0.124-0.235-0.218-0.329c-0.094-0.094-0.206-0.169-0.329-0.219s-0.255-0.075-0.388-0.074-0.264 0.029-0.386 0.082c-0.122 0.053-0.232 0.13-0.324 0.226v0.002z"></path>
        </symbol>
        <symbol id="icon-buy" viewBox="0 0 22 32">
            <path stroke-linejoin="round" stroke-linecap="round" stroke-miterlimit="4" stroke-width="6.4" d="M3.2 3.2l15.84 12.8-15.84 12.8"></path>
        </symbol>
    </defs>
</svg>