<svg width="768" height="68" fill="none" xmlns="http://www.w3.org/2000/svg"><ellipse cx="654.897" cy="63.125" rx="3.745" ry="3.842" fill="#F8D24E"/><ellipse cx="663.01" cy="58.002" rx="3.745" ry="3.842" fill="#F8D24E"/><ellipse cx="672.371" cy="52.239" rx="3.745" ry="3.842" fill="#F8D24E"/><ellipse cx="681.109" cy="47.116" rx="3.745" ry="3.842" fill="#F8D24E"/><ellipse cx="676.116" cy="60.563" rx="3.745" ry="3.842" fill="#F8D24E"/><ellipse cx="684.229" cy="55.441" rx="3.745" ry="3.842" fill="#F8D24E"/><ellipse cx="693.591" cy="49.678" rx="3.745" ry="3.842" fill="#F8D24E"/><ellipse cx="702.328" cy="44.555" rx="3.745" ry="3.842" fill="#F8D24E"/><ellipse cx="694.215" cy="58.642" rx="3.745" ry="3.842" fill="#F8D24E"/><ellipse cx="702.328" cy="53.519" rx="3.745" ry="3.842" fill="#F8D24E"/><ellipse cx="711.689" cy="47.756" rx="3.745" ry="3.842" fill="#F8D24E"/><ellipse cx="720.425" cy="42.634" rx="3.745" ry="3.842" fill="#F8D24E"/><ellipse cx="711.689" cy="56.081" rx="3.745" ry="3.842" fill="#F8D24E"/><ellipse cx="719.802" cy="50.958" rx="3.745" ry="3.842" fill="#F8D24E"/><ellipse cx="729.163" cy="45.195" rx="3.745" ry="3.842" fill="#F8D24E"/><ellipse cx="737.901" cy="40.073" rx="3.745" ry="3.842" fill="#F8D24E"/><ellipse cx="717.306" cy="63.125" rx="3.745" ry="3.842" fill="#F8D24E"/><ellipse cx="725.419" cy="58.002" rx="3.745" ry="3.842" fill="#F8D24E"/><ellipse cx="736.652" cy="63.765" rx="3.745" ry="3.842" fill="#F8D24E"/><ellipse cx="734.78" cy="52.239" rx="3.745" ry="3.842" fill="#F8D24E"/><ellipse cx="746.015" cy="58.002" rx="3.745" ry="3.842" fill="#F8D24E"/><ellipse cx="754.751" cy="63.765" rx="3.745" ry="3.842" fill="#F8D24E"/><ellipse cx="743.517" cy="47.116" rx="3.745" ry="3.842" fill="#F8D24E"/><ellipse cx="754.751" cy="52.879" rx="3.745" ry="3.842" fill="#F8D24E"/><ellipse cx="763.488" cy="58.642" rx="3.745" ry="3.842" fill="#F8D24E"/><ellipse cx="616.828" cy="20.864" rx="3.745" ry="3.842" fill="#F8D24E"/><ellipse cx="624.94" cy="15.741" rx="3.745" ry="3.842" fill="#F8D24E"/><ellipse cx="634.303" cy="9.978" rx="3.745" ry="3.842" fill="#F8D24E"/><ellipse cx="643.038" cy="4.856" rx="3.745" ry="3.842" fill="#F8D24E"/><ellipse cx="601.226" cy="20.222" rx="3.745" ry="3.842" fill="#F8D24E"/><ellipse cx="609.339" cy="15.1" rx="3.745" ry="3.842" fill="#F8D24E"/><ellipse cx="618.7" cy="9.338" rx="3.745" ry="3.842" fill="#F8D24E"/><ellipse cx="627.437" cy="4.215" rx="3.745" ry="3.842" fill="#F8D24E"/><ellipse cx="636.175" cy="63.125" rx="3.745" ry="3.842" fill="#F8D24E"/><ellipse cx="644.287" cy="58.002" rx="3.745" ry="3.842" fill="#F8D24E"/><ellipse cx="653.649" cy="52.239" rx="3.745" ry="3.842" fill="#F8D24E"/><ellipse cx="662.387" cy="47.116" rx="3.745" ry="3.842" fill="#F8D24E"/><ellipse cx="626.19" cy="59.283" rx="3.745" ry="3.842" fill="#F8D24E"/><ellipse cx="634.303" cy="54.16" rx="3.745" ry="3.842" fill="#F8D24E"/><ellipse cx="643.664" cy="48.397" rx="3.745" ry="3.842" fill="#F8D24E"/><ellipse cx="652.401" cy="43.275" rx="3.745" ry="3.842" fill="#F8D24E"/><ellipse cx="629.933" cy="45.836" rx="3.745" ry="3.842" fill="#F8D24E"/><ellipse cx="638.046" cy="40.714" rx="3.745" ry="3.842" fill="#F8D24E"/><ellipse cx="647.408" cy="34.95" rx="3.745" ry="3.842" fill="#F8D24E"/><ellipse cx="656.145" cy="29.828" rx="3.745" ry="3.842" fill="#F8D24E"/><ellipse cx="629.933" cy="23.425" rx="3.745" ry="3.842" fill="#F8D24E"/><ellipse cx="638.046" cy="18.302" rx="3.745" ry="3.842" fill="#F8D24E"/><ellipse cx="647.408" cy="12.539" rx="3.745" ry="3.842" fill="#F8D24E"/><ellipse cx="656.145" cy="7.417" rx="3.745" ry="3.842" fill="#F8D24E"/><ellipse cx="628.062" cy="35.591" rx="3.745" ry="3.842" fill="#F8D24E"/><ellipse cx="636.176" cy="30.468" rx="3.745" ry="3.842" fill="#F8D24E"/><ellipse cx="645.536" cy="24.705" rx="3.745" ry="3.842" fill="#F8D24E"/><ellipse cx="654.273" cy="19.583" rx="3.745" ry="3.842" fill="#F8D24E"/><ellipse cx="588.745" cy="17.021" rx="3.745" ry="3.842" fill="#F8D24E"/><ellipse cx="596.858" cy="11.899" rx="3.745" ry="3.842" fill="#F8D24E"/><ellipse cx="606.219" cy="6.136" rx="3.745" ry="3.842" fill="#F8D24E"/><path d="M605.595 20.863c2.068 0 3.745-1.72 3.745-3.842s-1.677-3.842-3.745-3.842-3.744 1.72-3.744 3.842 1.676 3.842 3.744 3.842Z" fill="#F8D24E"/><ellipse cx="3.745" cy="60.49" rx="3.745" ry="3.842" fill="#F8D24E"/><ellipse cx="11.857" cy="55.367" rx="3.745" ry="3.842" fill="#F8D24E"/><ellipse cx="21.219" cy="49.605" rx="3.745" ry="3.842" fill="#F8D24E"/><ellipse cx="29.956" cy="44.482" rx="3.745" ry="3.842" fill="#F8D24E"/><ellipse cx="51.176" cy="62.411" rx="3.745" ry="3.842" fill="#F8D24E"/><ellipse cx="59.288" cy="57.288" rx="3.745" ry="3.842" fill="#F8D24E"/><ellipse cx="68.65" cy="51.526" rx="3.745" ry="3.842" fill="#F8D24E"/><ellipse cx="77.386" cy="46.403" rx="3.745" ry="3.842" fill="#F8D24E"/><ellipse cx="70.522" cy="59.849" rx="3.745" ry="3.842" fill="#F8D24E"/><ellipse cx="78.635" cy="54.727" rx="3.745" ry="3.842" fill="#F8D24E"/><ellipse cx="87.996" cy="48.964" rx="3.745" ry="3.842" fill="#F8D24E"/><ellipse cx="96.733" cy="43.841" rx="3.745" ry="3.842" fill="#F8D24E"/><ellipse cx="106.095" cy="36.158" rx="3.745" ry="3.842" fill="#F8D24E"/><ellipse cx="86.123" cy="40.64" rx="3.745" ry="3.842" fill="#F8D24E"/><ellipse cx="33.701" cy="61.771" rx="3.745" ry="3.842" fill="#F8D24E"/><ellipse cx="41.814" cy="56.648" rx="3.745" ry="3.842" fill="#F8D24E"/><ellipse cx="51.176" cy="50.885" rx="3.745" ry="3.842" fill="#F8D24E"/><ellipse cx="59.911" cy="45.763" rx="3.745" ry="3.842" fill="#F8D24E"/><ellipse cx="18.099" cy="61.13" rx="3.745" ry="3.842" fill="#F8D24E"/><ellipse cx="26.212" cy="56.007" rx="3.745" ry="3.842" fill="#F8D24E"/><ellipse cx="35.573" cy="50.245" rx="3.745" ry="3.842" fill="#F8D24E"/><ellipse cx="44.309" cy="45.122" rx="3.745" ry="3.842" fill="#F8D24E"/></svg>